:SAMPLES-PER-SECOND 30
:FULLY-SPECIFIED
:DEGREES
10
root  22.94177709 39.71110967 12.61553276 -3.820539951 -1.988019943 -7.777880192
lowerback  10.17809963 2.120049953 5.240809917
upperback  1.558889985 3.563980103 3.946840048
thorax  -4.01278019 1.712960005 0.693754971
lowerneck  -17.1916008 -6.077250004 -15.09049988
upperneck  26.12730026 -6.767920017 9.057889938
head  12.35599995 -3.412679911 4.918729782
lclavicle  0 -5.34481991e-014 2.981770104e-014
lhumerus  -48.61909866 10.76029968 81.87640381
lradius  -2.796289469e-031 -2.156295258e-031 37.63679886
lwrist  -7.062250077e-031 -0 2.254450083
lhand  -7.251500151e-031 -13.11870003 29.82970047
lfingers  90 7.125020027 -90
lthumb  93.30173986 14.03032863 76.61479967
rclavicle  0 -5.34481991e-014 2.981770104e-014
rhumerus  -25.79360008 -6.176410198 -79.37979889
rradius  3.106368921e-031 1.679081941e-031 28.39249992
rwrist  7.062250077e-031 -0 4.038159847
rhand  3.720985829e-031 -18.38190079 11.68039989
rfingers  -90 -7.125020027 -90
rthumb  -86.01930831 -26.57306402 -81.15791506
rfemur  5.087480068 3.511759996 33.60549927
rtibia  -0 0 20.83169937
rfoot  -4.576302551e-032 -15.30949974 -2.411060095
rtoes  4.885366503 19.41789023 -104.4182476
lfemur  -25.24609947 5.699309826 -8.967940331
ltibia  -0 0 50.80270004
lfoot  4.490500524e-032 -10.59759998 3.52760005
ltoes  -3.665767683 -19.67472149 -100.7740601
11
root  22.96066735 39.70733402 12.94680017 -3.61413002 -1.959169984 -7.857979774
lowerback  10.06849957 2.148780107 5.321899891
upperback  1.428959966 3.611639977 3.964319944
thorax  -4.083069801 1.732730031 0.662717998
lowerneck  -16.92399979 -6.113349915 -15.27890015
upperneck  26.12590027 -6.810120106 9.073450089
head  12.31709957 -3.45472002 4.952290058
lclavicle  0 -5.34481991e-014 2.981770104e-014
lhumerus  -48.84489822 10.89780045 81.88289642
lradius  -2.805428169e-031 -2.144391948e-031 37.3932991
lwrist  -1.059337512e-030 -3.531125038e-031 1.961879969
lhand  -7.256265753e-031 -13.2791996 29.30970001
lfingers  90 7.125020027 -90
lthumb  93.14306642 13.54249333 76.80261984
rclavicle  0 -5.34481991e-014 2.981770104e-014
rhumerus  -25.49480057 -5.852330208 -79.41570282
rradius  3.095645029e-031 1.698771878e-031 28.75629997
rwrist  1.059337512e-030 -3.531125038e-031 3.915110111
rhand  -0 -18.20980072 11.78950024
rfingers  -90 -7.125020027 -90
rthumb  -85.91619171 -26.67538112 -80.96358501
rfemur  5.660820007 3.569210052 33.68209839
rtibia  -0 0 20.26880074
rfoot  -4.578523467e-032 -15.41069984 -2.394769907
rtoes  4.28582251 19.55379008 -102.6210449
lfemur  -25.48889923 5.353419781 -8.949110031
ltibia  -0 0 48.43909836
lfoot  4.486740171e-032 -10.33780003 4.432849884
ltoes  -3.785651485 -19.65287513 -101.1303256
12
root  22.98600054 39.68688785 13.27822227 -3.395450115 -1.991899967 -7.941279888
lowerback  10.01710033 2.177330017 5.42825985
upperback  1.21984005 3.670739889 3.953710079
thorax  -4.265049934 1.75395 0.5829390287
lowerneck  -16.62689972 -6.093850136 -15.29290009
upperneck  26.19949913 -6.80700016 8.994850159
head  12.2833004 -3.472800016 4.929820061
lclavicle  0 -5.34481991e-014 2.981770104e-014
lhumerus  -49.24089813 10.96930027 81.8302002
lradius  -2.820504551e-031 -2.124523033e-031 36.98860168
lwrist  -1.059337512e-030 -3.531125038e-031 2.017169952
lhand  -7.256941883e-031 -13.30179977 29.44820023
lfingers  90 7.125020027 -90
lthumb  93.17061711 13.67980296 76.81729102
rclavicle  0 -5.34481991e-014 2.981770104e-014
rhumerus  -25.27230072 -5.638219833 -79.43920135
rradius  3.087745926e-031 1.713087602e-031 29.02160072
rwrist  1.059337512e-030 -0 4.064350128
rhand  3.713740663e-031 -18.04249954 12.11620045
rfingers  -90 -7.125020027 -90
rthumb  -85.77544194 -26.99245674 -80.75634434
rfemur  6.256840229 3.632699966 33.7696991
rtibia  -0 0 19.6364994
rfoot  -4.580087005e-032 -15.48149967 -2.482150078
rtoes  3.906190722 19.63017064 -101.4889291
lfemur  -25.65229988 5.059380054 -8.90625
ltibia  -0 0 45.99860001
lfoot  4.477612622e-032 -9.676580429 5.34032011
ltoes  -3.676293343 -19.67283267 -100.8053247
13
root  23.01688908 39.65555627 13.60620063 -3.166620016 -2.0634799 -7.870079994
lowerback  9.878410339 2.202769995 5.406610012
upperback  1.121299982 3.694210052 3.889859915
thorax  -4.287390232 1.763980031 0.5292479992
lowerneck  -16.6760006 -6.052999973 -15.17739964
upperneck  26.30599976 -6.73292017 8.837030411
head  12.31340027 -3.448199987 4.863299847
lclavicle  0 -5.34481991e-014 2.981770104e-014
lhumerus  -49.70270157 10.99400043 81.85230255
lradius  -2.814769181e-031 -2.132115966e-031 37.14300156
lwrist  -7.062250077e-031 -0 2.403929949
lhand  -7.255793824e-031 -13.26340008 30.02179909
lfingers  90 7.125020027 -90
lthumb  93.3144261 14.23397222 76.74675472
rclavicle  0 -5.34481991e-014 2.981770104e-014
rhumerus  -24.94400024 -5.514979839 -79.50839996
rradius  3.079186546e-031 1.728425368e-031 29.30660057
rwrist  7.062250077e-031 -3.531125038e-031 4.061739922
rhand  -0 -17.91519928 12.75819969
rfingers  -90 -7.125020027 -90
rthumb  -85.59403757 -27.62143693 -80.56422607
rfemur  6.942580223 3.727180004 33.65610123
rtibia  -0 0 18.9144001
rfoot  -4.579480949e-032 -15.45409966 -2.50296998
rtoes  1.604726827 19.93814564 -94.69655165
lfemur  -25.72240067 4.702280045 -9.025679588
ltibia  -0 0 43.49729919
lfoot  4.474091494e-032 -9.408450127 5.866960049
ltoes  -3.839478713 -19.64282806 -101.2904121
14
root  23.04844443 39.64555695 13.94859975 -2.994590044 -2.124289989 -7.803740025
lowerback  9.743650436 2.249469995 5.404920101
upperback  1.057450056 3.746829987 3.842289925
thorax  -4.274479866 1.789360046 0.4784460068
lowerneck  -16.66419983 -5.986879826 -15.15110016
upperneck  26.3288002 -6.622169971 8.753270149
head  12.29950047 -3.406860113 4.845399857
lclavicle  0 -5.34481991e-014 2.981770104e-014
lhumerus  -50.07410049 11.15079975 81.81490326
lradius  -2.80846068e-031 -2.140418801e-031 37.31219864
lwrist  -1.059337512e-030 -0 2.489330053
lhand  -7.257721278e-031 -13.3277998 30.64539909
lfingers  90 7.125020027 -90
lthumb  93.44681719 14.84845784 76.77352142
rclavicle  0 -5.34481991e-014 2.981770104e-014
rhumerus  -24.77190018 -5.25593996 -79.58540344
rradius  3.064025984e-031 1.755160622e-031 29.80529976
rwrist  7.062250077e-031 -3.531125038e-031 3.775880098
rhand  -0 -17.94799995 13.17389965
rfingers  -90 -7.125020027 -90
rthumb  -85.53388538 -28.03278063 -80.56410548
rfemur  7.783689976 3.779170036 33.5284996
rtibia  -0 0 18.14380074
rfoot  -4.578490426e-032 -15.40919971 -2.528069973
rtoes  1.723989932 19.92858998 -95.04637066
lfemur  -25.78370094 4.288889885 -9.148650169
ltibia  -0 0 40.95299911
lfoot  4.470901834e-032 -9.158470154 5.931350231
ltoes  -3.706258221 -19.66742468 -100.8943457
15
root  23.06800001 39.64155603 14.29182188 -2.796849966 -2.080310106 -7.893519878
lowerback  9.699720383 2.287519932 5.456550121
upperback  0.9388340116 3.809679985 3.886820078
thorax  -4.372570038 1.816419959 0.4876370132
lowerneck  -16.69440079 -6.015960217 -15.33880043
upperneck  26.46249962 -6.617619991 8.782790184
head  12.36859989 -3.422120094 4.893680096
lclavicle  0 -5.34481991e-014 2.981770104e-014
lhumerus  -50.30350113 11.31099987 81.80840302
lradius  -2.822527966e-031 -2.121834093e-031 36.93399811
lwrist  -7.062250077e-031 -3.531125038e-031 2.751339912
lhand  -7.25742431e-031 -13.3178997 30.75799942
lfingers  90 7.125020027 -90
lthumb  93.47590154 14.95690299 76.75678077
rclavicle  0 -5.34481991e-014 2.981770104e-014
rhumerus  -24.60029984 -4.902810097 -79.61699677
rradius  3.045029035e-031 1.787915605e-031 30.41970062
rwrist  3.531125038e-031 -0 3.358500004
rhand  -0 -18.13570023 13.22039986
rfingers  -90 -7.125020027 -90
rthumb  -85.62287269 -28.08561866 -80.76527577
rfemur  8.627220154 3.783410072 33.61660004
rtibia  -0 0 17.2567997
rfoot  -6.868370402e-032 -15.42840004 -2.645740032
rtoes  3.853508952 19.64018496 -101.3321522
lfemur  -25.9382 3.809360027 -9.078969955
ltibia  -0 0 38.38169861
lfoot  4.462979055e-032 -8.50440979 5.990990162
ltoes  -3.642357317 -19.67890229 -100.7045342
